<?xml version="1.0" encoding="utf-8"?>
<svg xmlns="http://www.w3.org/2000/svg" style="display:none">

  <!-- Instagram -->
  <symbol id="instagram" viewBox="0 0 20 20">
    <path d="M128,82a46,46,0,1,0,46,46A46.05239,46.05239,0,0,0,128,82Zm0,68a22,22,0,1,1,22-22A22.02489,22.02489,0,0,1,128,150ZM176,20H80A60.06812,60.06812,0,0,0,20,80v96a60.06812,60.06812,0,0,0,60,60h96a60.06812,60.06812,0,0,0,60-60V80A60.06812,60.06812,0,0,0,176,20Zm36,156a36.04061,36.04061,0,0,1-36,36H80a36.04061,36.04061,0,0,1-36-36V80A36.04061,36.04061,0,0,1,80,44h96a36.04061,36.04061,0,0,1,36,36ZM196,76a16,16,0,1,1-16-16A16.01833,16.01833,0,0,1,196,76Z"/>
  </symbol>

  <!-- Facebook -->
  <symbol id="facebook" viewBox="0 0 20 20">
    <path d="M12 2.03998C6.5 2.03998 2 6.52998 2 12.06C2 17.06 5.66 21.21 10.44 21.96V14.96H7.9V12.06H10.44V9.84998C10.44 7.33998 11.93 5.95998 14.22 5.95998C15.31 5.95998 16.45 6.14998 16.45 6.14998V8.61998H15.19C13.95 8.61998 13.56 9.38998 13.56 10.18V12.06H16.34L15.89 14.96H13.56V21.96C15.9164 21.5878 18.0622 20.3855 19.6099 18.57C21.1576 16.7546 22.0054 14.4456 22 12.06C22 6.52998 17.5 2.03998 12 2.03998Z"/>
  </symbol>

  <!-- Twitter -->
  <symbol id="twitter" viewBox="0 0 20 20">
    <path d="M10.29,7377 C17.837,7377 21.965,7370.84365 21.965,7365.50546 C21.965,7365.33021 21.965,7365.15595 21.953,7364.98267 C22.756,7364.41163 23.449,7363.70276 24,7362.8915 C23.252,7363.21837 22.457,7363.433 21.644,7363.52751 C22.5,7363.02244 23.141,7362.2289 23.448,7361.2926 C22.642,7361.76321 21.761,7362.095 20.842,7362.27321 C19.288,7360.64674 16.689,7360.56798 15.036,7362.09796 C13.971,7363.08447 13.518,7364.55538 13.849,7365.95835 C10.55,7365.79492 7.476,7364.261 5.392,7361.73762 C4.303,7363.58363 4.86,7365.94457 6.663,7367.12996 C6.01,7367.11125 5.371,7366.93797 4.8,7366.62489 L4.8,7366.67608 C4.801,7368.5989 6.178,7370.2549 8.092,7370.63591 C7.488,7370.79836 6.854,7370.82199 6.24,7370.70483 C6.777,7372.35099 8.318,7373.47829 10.073,7373.51078 C8.62,7374.63513 6.825,7375.24554 4.977,7375.24358 C4.651,7375.24259 4.325,7375.22388 4,7375.18549 C5.877,7376.37088 8.06,7377 10.29,7376.99705"/>
  </symbol>
  <symbol id="youtube" viewBox="0 0 20 20">
    <path d="M251.988432,7291.58588 L251.988432,7285.97425 C253.980638,7286.91168 255.523602,7287.8172 257.348463,7288.79353 C255.843351,7289.62824 253.980638,7290.56468 251.988432,7291.58588 M263.090998,7283.18289 C262.747343,7282.73013 262.161634,7282.37809 261.538073,7282.26141 C259.705243,7281.91336 248.270974,7281.91237 246.439141,7282.26141 C245.939097,7282.35515 245.493839,7282.58153 245.111335,7282.93357 C243.49964,7284.42947 244.004664,7292.45151 244.393145,7293.75096 C244.556505,7294.31342 244.767679,7294.71931 245.033639,7294.98558 C245.376298,7295.33761 245.845463,7295.57995 246.384355,7295.68865 C247.893451,7296.0008 255.668037,7296.17532 261.506198,7295.73552 C262.044094,7295.64178 262.520231,7295.39147 262.895762,7295.02447 C264.385932,7293.53455 264.28433,7285.06174 263.090998,7283.18289"/>
  </symbol>
	<symbol id="tiktok" viewBox="0 0 20 20">
	    <path d="M16.656 1.029c1.637-0.025 3.262-0.012 4.886-0.025 0.054 2.031 0.878 3.859 2.189 5.213l-0.002-0.002c1.411 1.271 3.247 2.095 5.271 2.235l0.028 0.002v5.036c-1.912-0.048-3.71-0.489-5.331-1.247l0.082 0.034c-0.784-0.377-1.447-0.764-2.077-1.196l0.052 0.034c-0.012 3.649 0.012 7.298-0.025 10.934-0.103 1.853-0.719 3.543-1.707 4.954l0.020-0.031c-1.652 2.366-4.328 3.919-7.371 4.011l-0.014 0c-0.123 0.006-0.268 0.009-0.414 0.009-1.73 0-3.347-0.482-4.725-1.319l0.040 0.023c-2.508-1.509-4.238-4.091-4.558-7.094l-0.004-0.041c-0.025-0.625-0.037-1.25-0.012-1.862 0.49-4.779 4.494-8.476 9.361-8.476 0.547 0 1.083 0.047 1.604 0.136l-0.056-0.008c0.025 1.849-0.050 3.699-0.050 5.548-0.423-0.153-0.911-0.242-1.42-0.242-1.868 0-3.457 1.194-4.045 2.861l-0.009 0.030c-0.133 0.427-0.21 0.918-0.21 1.426 0 0.206 0.013 0.41 0.037 0.61l-0.002-0.024c0.332 2.046 2.086 3.59 4.201 3.59 0.061 0 0.121-0.001 0.181-0.004l-0.009 0c1.463-0.044 2.733-0.831 3.451-1.994l0.010-0.018c0.267-0.372 0.45-0.822 0.511-1.311l0.001-0.014c0.125-2.237 0.075-4.461 0.087-6.698 0.012-5.036-0.012-10.060 0.025-15.083z"/>
	  </symbol>
</svg>

