<?xml version="1.0" encoding="utf-8"?>
<svg xmlns="http://www.w3.org/2000/svg" style="display:none">

  <!-- Instagram -->
  <symbol id="instagram" viewBox="0 0 24 24">
    <path d="M12 2c2.717 0 3.056.01 4.122.06 1.065.05 1.79.217 2.428.465.66.254 1.216.598 1.772 1.153a4.908 4.908 0 0 1 1.153 1.772c.247.637.415 1.363.465 2.428.047 1.066.06 1.405.06 4.122 0 2.717-.01 3.056-.06 4.122-.05 1.065-.218 1.79-.465 2.428a4.883 4.883 0 0 1-1.153 1.772 4.915 4.915 0 0 1-1.772 1.153c-.637.247-1.363.415-2.428.465-1.066.047-1.405.06-4.122.06-2.717 0-3.056-.01-4.122-.06-1.065-.05-1.79-.218-2.428-.465a4.89 4.89 0 0 1-1.772-1.153 4.904 4.904 0 0 1-1.153-1.772c-.248-.637-.415-1.363-.465-2.428C2.013 15.056 2 14.717 2 12c0-2.717.01-3.056.06-4.122.05-1.066.217-1.79.465-2.428a4.88 4.88 0 0 1 1.153-1.772A4.897 4.897 0 0 1 5.45 2.525c.638-.248 1.362-.415 2.428-.465C8.944 2.013 9.283 2 12 2zm0 5a5 5 0 1 0 0 10 5 5 0 0 0 0-10zm6.5-.25a1.25 1.25 0 0 0-2.5 0 1.25 1.25 0 0 0 2.5 0zM12 9a3 3 0 1 1 0 6 3 3 0 0 1 0-6z"/>
  </symbol>

  <!-- Facebook -->
  <symbol id="facebook" viewBox="0 0 24 24">
    <path d="M12 2.03998C6.5 2.03998 2 6.52998 2 12.06C2 17.06 5.66 21.21 10.44 21.96V14.96H7.9V12.06H10.44V9.84998C10.44 7.33998 11.93 5.95998 14.22 5.95998C15.31 5.95998 16.45 6.14998 16.45 6.14998V8.61998H15.19C13.95 8.61998 13.56 9.38998 13.56 10.18V12.06H16.34L15.89 14.96H13.56V21.96C15.9164 21.5878 18.0622 20.3855 19.6099 18.57C21.1576 16.7546 22.0054 14.4456 22 12.06C22 6.52998 17.5 2.03998 12 2.03998Z"/>
  </symbol>

  <!-- Twitter -->
  <symbol id="twitter" viewBox="0 0 30 30">
    <path d="M28,6.937c-0.957,0.425-1.985,0.711-3.064,0.84c1.102-0.66,1.947-1.705,2.345-2.951c-1.03,0.611-2.172,1.055-3.388,1.295 c-0.973-1.037-2.359-1.685-3.893-1.685c-2.946,0-5.334,2.389-5.334,5.334c0,0.418,0.048,0.826,0.138,1.215 c-4.433-0.222-8.363-2.346-10.995-5.574C3.351,6.199,3.088,7.115,3.088,8.094c0,1.85,0.941,3.483,2.372,4.439 c-0.874-0.028-1.697-0.268-2.416-0.667c0,0.023,0,0.044,0,0.067c0,2.585,1.838,4.741,4.279,5.23 c-0.447,0.122-0.919,0.187-1.406,0.187c-0.343,0-0.678-0.034-1.003-0.095c0.679,2.119,2.649,3.662,4.983,3.705 c-1.825,1.431-4.125,2.284-6.625,2.284c-0.43,0-0.855-0.025-1.273-0.075c2.361,1.513,5.164,2.396,8.177,2.396 c9.812,0,15.176-8.128,15.176-15.177c0-0.231-0.005-0.461-0.015-0.69C26.38,8.945,27.285,8.006,28,6.937z"/>
  </symbol>
  <symbol id="youtube" viewBox="0 0 30 30">
    <path d="M21.582,6.186c-0.23-0.86-0.908-1.538-1.768-1.768C18.254,4,12,4,12,4S5.746,4,4.186,4.418 c-0.86,0.23-1.538,0.908-1.768,1.768C2,7.746,2,12,2,12s0,4.254,0.418,5.814c0.23,0.86,0.908,1.538,1.768,1.768 C5.746,20,12,20,12,20s6.254,0,7.814-0.418c0.861-0.23,1.538-0.908,1.768-1.768C22,16.254,22,12,22,12S22,7.746,21.582,6.186z M10,14.598V9.402c0-0.385,0.417-0.625,0.75-0.433l4.5,2.598c0.333,0.192,0.333,0.674,0,0.866l-4.5,2.598 C10.417,15.224,10,14.983,10,14.598z"/>
  </symbol>
	<symbol id="tiktok" viewBox="0 0 30 30">
	    <path d="M24,4H6C4.895,4,4,4.895,4,6v18c0,1.105,0.895,2,2,2h18c1.105,0,2-0.895,2-2V6C26,4.895,25.104,4,24,4z M22.689,13.474 c-0.13,0.012-0.261,0.02-0.393,0.02c-1.495,0-2.809-0.768-3.574-1.931c0,3.049,0,6.519,0,6.577c0,2.685-2.177,4.861-4.861,4.861 C11.177,23,9,20.823,9,18.139c0-2.685,2.177-4.861,4.861-4.861c0.102,0,0.201,0.009,0.3,0.015v2.396c-0.1-0.012-0.197-0.03-0.3-0.03 c-1.37,0-2.481,1.111-2.481,2.481s1.11,2.481,2.481,2.481c1.371,0,2.581-1.08,2.581-2.45c0-0.055,0.024-11.17,0.024-11.17h2.289 c0.215,2.047,1.868,3.663,3.934,3.811V13.474z"/>
	  </symbol>
</svg>









