<?xml version="1.0" encoding="utf-8"?>
<svg xmlns="http://www.w3.org/2000/svg" style="display:none">

  <!-- Instagram -->
  <symbol id="insta" viewBox="0 0 20 20">
    <path d="M12.7 10c0-1.5-1.2-2.7-2.7-2.7S7.3 8.5 7.3 10s1.2 2.7 2.7 2.7c1.5 0 2.7-1.2 2.7-2.7zm1.4 0c0 2.3-1.8 4.1-4.1 4.1S5.9 12.3 5.9 10 7.7 5.9 10 5.9s4.1 1.8 4.1 4.1zm1.1-4.3c0 .6-.4 1-1 1s-1-.4-1-1 .4-1 1-1 1 .5 1 1zM10 3.4c-1.2 0-3.7-.1-4.7.3-.7.3-1.3.9-1.5 1.6-.4 1-.3 3.5-.3 4.7s-.1 3.7.3 4.7c.2.7.8 1.3 1.5 1.5 1 .4 3.6.3 4.7.3s3.7.1 4.7-.3c.7-.3 1.2-.8 1.5-1.5.4-1.1.3-3.6.3-4.7s.1-3.7-.3-4.7c-.2-.7-.8-1.3-1.5-1.5-1-.5-3.5-.4-4.7-.4zm8 6.6v3.3c0 1.2-.4 2.4-1.3 3.4-.9.9-2.1 1.3-3.4 1.3H6.7c-1.2 0-2.4-.4-3.4-1.3-.8-.9-1.3-2.1-1.3-3.4V10 6.7c0-1.3.5-2.5 1.3-3.4C4.3 2.5 5.5 2 6.7 2h6.6c1.2 0 2.4.4 3.4 1.3.8.9 1.3 2.1 1.3 3.4V10z"/>
  </symbol>

  <!-- Facebook -->
  <symbol id="facebook" viewBox="0 0 24 24">
    <path d="M22 12a10 10 0 1 0-11.5 9.9v-7H8v-3h2.5V9.5A3.5 3.5 0 0 1 14 6h3v3h-3c-.5 0-1 .5-1 1V12h4l-1 3h-3v7A10 10 0 0 0 22 12z"/>
  </symbol>

  <!-- Twitter -->
  <symbol id="twitter" viewBox="0 0 24 24">
    <path d="M22.46 6c-.77.35-1.6.58-2.46.69a4.3 4.3 0 0 0 1.88-2.37 8.59 8.59 0 0 1-2.72 1.04 4.28 4.28 0 0 0-7.29 3.9A12.13 12.13 0 0 1 3.16 4.9a4.28 4.28 0 0 0 1.32 5.71 4.26 4.26 0 0 1-1.94-.54v.06a4.28 4.28 0 0 0 3.43 4.2 4.3 4.3 0 0 1-1.93.07 4.28 4.28 0 0 0 4 2.97A8.6 8.6 0 0 1 2 19.55a12.1 12.1 0 0 0 6.56 1.92c7.88 0 12.2-6.53 12.2-12.2 0-.19 0-.37-.01-.56A8.7 8.7 0 0 0 22.46 6z"/>
  </symbol>

</svg>
